<svg width="22" height="24" viewBox="0 0 22 24" fill="none" xmlns="http://www.w3.org/2000/svg">
<path d="M15.5473 15.5656C16.2091 15.2102 16.9665 15.0078 17.7731 15.0078H17.7758C17.8579 15.0078 17.8962 14.9094 17.836 14.8547C16.9971 14.1019 16.0389 13.4938 15.0005 13.0555C14.9895 13.05 14.9786 13.0473 14.9676 13.0418C16.6657 11.8086 17.7704 9.8043 17.7704 7.54297C17.7704 3.79688 14.7407 0.761719 11.0028 0.761719C7.26491 0.761719 4.23796 3.79688 4.23796 7.54297C4.23796 9.8043 5.34265 11.8086 7.04343 13.0418C7.03249 13.0473 7.02155 13.05 7.01062 13.0555C5.78835 13.5723 4.69187 14.3133 3.74851 15.2594C2.81059 16.1956 2.06389 17.3054 1.55007 18.527C1.04452 19.7231 0.771678 21.0047 0.746162 22.3031C0.745432 22.3323 0.750551 22.3613 0.761217 22.3885C0.771883 22.4157 0.78788 22.4405 0.808266 22.4614C0.828652 22.4822 0.853014 22.4989 0.879917 22.5102C0.90682 22.5215 0.935719 22.5274 0.964912 22.5273H2.6028C2.72038 22.5273 2.81882 22.4316 2.82155 22.3141C2.87624 20.2031 3.72116 18.2262 5.21687 16.7277C6.76179 15.1773 8.81804 14.3242 11.0055 14.3242C12.5559 14.3242 14.0434 14.7535 15.3258 15.5574C15.3588 15.5781 15.3966 15.5898 15.4355 15.5912C15.4744 15.5927 15.5129 15.5838 15.5473 15.5656ZM11.0055 12.2461C9.75319 12.2461 8.57468 11.7566 7.68601 10.868C7.24877 10.4319 6.90214 9.91355 6.66608 9.34289C6.43003 8.77224 6.30922 8.16052 6.31062 7.54297C6.31062 6.28789 6.80007 5.10664 7.68601 4.21797C8.57194 3.3293 9.75046 2.83984 11.0055 2.83984C12.2606 2.83984 13.4364 3.3293 14.3251 4.21797C14.7623 4.65408 15.1089 5.17239 15.345 5.74304C15.581 6.3137 15.7019 6.92542 15.7005 7.54297C15.7005 8.79805 15.211 9.9793 14.3251 10.868C13.4364 11.7566 12.2579 12.2461 11.0055 12.2461ZM21.0626 18.7539H18.7657V16.457C18.7657 16.3367 18.6673 16.2383 18.5469 16.2383H17.0157C16.8954 16.2383 16.7969 16.3367 16.7969 16.457V18.7539H14.5001C14.3798 18.7539 14.2813 18.8523 14.2813 18.9727V20.5039C14.2813 20.6242 14.3798 20.7227 14.5001 20.7227H16.7969V23.0195C16.7969 23.1398 16.8954 23.2383 17.0157 23.2383H18.5469C18.6673 23.2383 18.7657 23.1398 18.7657 23.0195V20.7227H21.0626C21.1829 20.7227 21.2813 20.6242 21.2813 20.5039V18.9727C21.2813 18.8523 21.1829 18.7539 21.0626 18.7539Z" fill="white" fill-opacity="0.6"/>
</svg>
