<svg width="26" height="27" viewBox="0 0 26 27" fill="none" xmlns="http://www.w3.org/2000/svg">
<path d="M10 0C6.1 0 3 3.1 3 7C2.99317 8.14687 3.26985 9.27765 3.80544 10.2918C4.34104 11.3059 5.11895 12.172 6.07 12.813C2.51 14.346 0 17.892 0 22H2C2 17.6 5.6 14 10 14C13.9 14 17 10.9 17 7C17 3.1 13.9 0 10 0ZM10 2C12.8 2 15 4.2 15 7C15 9.8 12.8 12 10 12C7.2 12 5 9.8 5 7C5 4.2 7.2 2 10 2ZM18.1 13V15.1C17.5 15.2 16.9 15.5 16.4 15.8L14.9 14.3L13.5 15.7L15 17.2C14.6 17.7 14.4 18.3 14.3 19H12V21H14.1C14.2 21.6 14.5 22.2 14.8 22.8L13.3 24.3L14.7 25.7L16.2 24.2C16.7 24.5 17.3 24.8 17.9 24.9V27H19.9V24.9C20.5 24.8 21.1 24.5 21.6 24.2L23.1 25.7L24.5 24.3L23 22.8C23.4 22.3 23.6 21.7 23.7 21H26V19H23.9C23.8 18.4 23.5 17.8 23.2 17.2L24.7 15.7L23.3 14.3L21.8 15.8C21.3 15.5 20.7 15.2 20.1 15.1V13H18.1ZM19 17C20.7 17 22 18.3 22 20C22 21.7 20.7 23 19 23C17.3 23 16 21.7 16 20C16 18.3 17.3 17 19 17ZM19 19C18.8729 19.0016 18.7476 19.0309 18.633 19.086C18.514 19.1426 18.4057 19.2194 18.313 19.313C18.2194 19.4057 18.1426 19.514 18.086 19.633C18.0309 19.7476 18.0016 19.8729 18 20C18 20.375 18.281 20.75 18.633 20.914C18.7476 20.9691 18.8729 20.9984 19 21C19.5 21 20 20.5 20 20C20 19.5 19.5 19 19 19Z" fill="#606165"/>
</svg>
